# xmcd
#
# Track frame offsets: 
#        150
#        23742
#        49110
#        62617
#        87162
#        107137
#        132230
#        160070
#        189555
#        206075
#
# Disc length: 2947 seconds
#
# Revision: 0
# Processed by: cddbd v1.5.2PL0 Copyright (c) Steve Scherf et al.
# Submitted via: ExactAudioCopy v1.0b3
#
DISCID=820b810a
DTITLE=Various Artist - Muc Tim
DYEAR=1995
DGENRE=
TTITLE0=Mai Tuan - Ha buon
TTITLE1=Che Thanh - Toi voi phuong
TTITLE2=Minh Tuyet, Cam Ly - He ve
TTITLE3=Mai Tuan - Giay phut ta tu
TTITLE4=Minh Tuyet, Cam Ly - Giac mong vien du
TTITLE5=Yen Khoa - Du am mua ha
TTITLE6=Mai Tuan - Noi buon hoa phuong
TTITLE7=Yen Khoa - Ba thang ta tu
TTITLE8=Minh Tuyet, Cam Ly, Hoang Dung - Saigon
TTITLE9=top ca - Hoc sinh hanh khuc
EXTD=
EXTT0=
EXTT1=
EXTT2=
EXTT3=
EXTT4=
EXTT5=
EXTT6=
EXTT7=
EXTT8=
EXTT9=
PLAYORDER=
